<?xml version="1.0" encoding="UTF-8"?>
<svg id="Layer_2" data-name="Layer 2" xmlns="http://www.w3.org/2000/svg" viewBox="0 0 367.73 261.92">
  <defs>
    <style>
      .cls-1 {
        fill: #fff;
      }
    </style>
  </defs>
  <g id="Layer_1-2" data-name="Layer 1">
    <g>
      <path class="cls-1" d="M172.43,97.79s.08-.01.12-.01h13.65v-43.06l37.24,13.28v-4.91l-37.24-31.18V12.11c0-4.17-1.66-8.17-4.6-11.12l-.07-.06c-1.23-1.23-3.19-1.23-4.41-.02l-.08.08c-2.95,2.95-4.61,6.95-4.61,11.12v19.81l-37.23,31.17v4.91l37.23-13.28v43.07Z"/>
      <path class="cls-1" d="M41.31,130.12l-21.43-3.83c-1.52-.24-2.74-.76-3.65-1.56-.92-.8-1.38-1.76-1.38-2.87v-2.4c0-1.6.76-2.83,2.27-3.71,1.52-.88,3.67-1.32,6.47-1.32h9.46c2.31,0,4.17.64,5.57,1.92,1.4,1.28,2.1,2.99,2.1,5.15h13.53c0-5.59-1.96-10.1-5.87-13.53-3.91-3.43-9.02-5.15-15.33-5.15h-9.58c-6.95,0-12.39,1.44-16.35,4.31-3.95,2.87-5.93,6.79-5.93,11.74v3.95c0,3.43,1.36,6.45,4.07,9.04,2.71,2.6,6.39,4.29,11.02,5.09l20.72,3.59c1.6.32,2.85.88,3.77,1.68.92.8,1.38,1.76,1.38,2.87v2.63c0,1.6-.78,2.86-2.33,3.77-1.56.92-3.69,1.38-6.41,1.38h-10.66c-2.8,0-5.03-.78-6.71-2.33-1.68-1.56-2.51-3.61-2.51-6.17H0c0,6.07,2.08,10.94,6.23,14.61,4.15,3.67,9.66,5.51,16.52,5.51h10.66c6.78,0,12.21-1.46,16.29-4.37,4.07-2.91,6.11-6.84,6.11-11.79v-4.43c0-3.35-1.32-6.27-3.95-8.74-2.63-2.47-6.15-4.15-10.54-5.03Z"/>
      <polygon class="cls-1" points="122.98 103.78 106.81 103.78 81.31 129.4 81.31 79.71 67.53 79.71 67.53 163.53 81.31 163.53 81.31 145.09 88.25 138.14 108.49 163.53 124.29 163.53 97.23 129.28 122.98 103.78"/>
      <path class="cls-1" d="M187.64,248.57c-.96-1-1.44-2.66-1.44-4.97v-60.6c-.64.85-1.35,1.66-2.1,2.44-3.26,3.35-7.16,5.7-11.67,7.03v51.73c0,6.14,1.54,10.63,4.61,13.47,3.08,2.83,7.97,4.25,14.67,4.25h6.47v-11.86h-5.75c-2.23,0-3.83-.49-4.79-1.49Z"/>
      <path class="cls-1" d="M215.78,177.97c-2.71,0-4.89.82-6.53,2.46-1.64,1.64-2.46,3.73-2.46,6.29s.82,4.65,2.46,6.29c1.64,1.64,3.81,2.45,6.53,2.45s4.91-.82,6.59-2.45c1.68-1.64,2.51-3.73,2.51-6.29s-.84-4.65-2.51-6.29c-1.68-1.64-3.87-2.46-6.59-2.46Z"/>
      <rect class="cls-1" x="208.95" y="202.16" width="13.77" height="59.75"/>
      <path class="cls-1" d="M276.01,201.2h-7.42c-2.87,0-5.75.8-8.62,2.4-2.87,1.6-5.19,3.71-6.95,6.35v-7.78h-12.81v59.75h13.77v-36.16c.72-3.67,2.31-6.68,4.79-9.04,2.47-2.35,5.27-3.53,8.38-3.53h7.42c2.4,0,4.33.9,5.81,2.69,1.48,1.8,2.22,4.13,2.22,7v39.04h13.77v-39.4c0-6.39-1.86-11.53-5.57-15.45-3.71-3.91-8.64-5.87-14.79-5.87Z"/>
      <polygon class="cls-1" points="340.67 227.67 366.42 202.16 350.25 202.16 324.74 227.79 324.74 178.09 310.97 178.09 310.97 261.91 324.74 261.91 324.74 243.47 331.69 236.53 351.93 261.91 367.73 261.91 340.67 227.67"/>
      <path class="cls-1" d="M186.2,163.53v-59.75h-13.65v34.49c-.88,3.83-2.57,6.99-5.09,9.46-2.51,2.48-5.25,3.71-8.2,3.71h-7.06c-2.48,0-4.45-.92-5.93-2.75-1.48-1.83-2.22-4.27-2.22-7.3v-37.6h-13.77v37.36c0,6.63,1.86,11.96,5.57,15.99,3.71,4.03,8.6,6.05,14.67,6.05h7.78c2.55,0,5.09-.76,7.6-2.28,2.51-1.52,4.73-3.59,6.65-6.23v8.86c0,3.83-.9,6.89-2.69,9.16-1.8,2.28-4.21,3.41-7.24,3.41h-9.7c-2.24,0-4.07-.6-5.51-1.8s-2.28-2.8-2.51-4.79h-13.53c.4,5.51,2.57,9.94,6.53,13.29,3.95,3.35,8.96,5.03,15.03,5.03h9.7c7.19,0,12.91-2.2,17.18-6.59,4.27-4.39,6.41-10.3,6.41-17.72Z"/>
    </g>
  </g>
</svg>