<?xml version="1.0" encoding="UTF-8"?>
<svg id="Layer_2" data-name="Layer 2" xmlns="http://www.w3.org/2000/svg" viewBox="0 0 107.33 99.92">
  <g id="Layer_1-2" data-name="Layer 1">
    <path d="M38.92,7l30.12,36.27c11.18-.01,19.52-.02,19.52-.02,4.06,0,7.95,1.62,10.83,4.49l.08.08c1.18,1.19,1.18,3.1-.02,4.29l-.06.07c-2.87,2.86-6.77,4.48-10.83,4.48h-19.28l-30.36,36.26h-4.78l12.93-36.26h-27.8l-10.49,9.23h-1.77l4.57-12.82v-6.21l-4.57-12.82h1.77l10.58,9.31c6.73-.01,17.02-.03,27.62-.04L34.13,7h4.78M38.92,0h-4.78c-2.27,0-4.4,1.1-5.72,2.96s-1.64,4.23-.88,6.38l9.54,26.98c-5.64,0-10.86.02-15.09.02l-8.59-7.56c-1.28-1.12-2.92-1.74-4.62-1.74h-1.77c-2.28,0-4.41,1.11-5.72,2.97-1.31,1.86-1.64,4.24-.87,6.39l4.17,11.68v3.79L.41,63.53c-.76,2.14-.44,4.52.87,6.38s3.45,2.97,5.72,2.97h1.77c1.7,0,3.35-.62,4.62-1.74l8.51-7.48h15.24l-9.6,26.91c-.76,2.14-.44,4.53.87,6.39s3.45,2.97,5.72,2.97h4.78c2.07,0,4.04-.92,5.37-2.51l28.26-33.75h16.01c5.95,0,11.55-2.32,15.77-6.52.1-.1.2-.2.29-.31,3.68-3.92,3.62-10.11-.18-13.94l-.09-.09c-4.22-4.22-9.82-6.54-15.78-6.54l-16.23.02L44.3,2.53c-1.33-1.6-3.3-2.53-5.39-2.53h0Z"/>
  </g>
</svg>