<?xml version="1.0" encoding="UTF-8"?>
<svg id="Layer_2" data-name="Layer 2" xmlns="http://www.w3.org/2000/svg" viewBox="0 0 96.33 88.92">
  <g id="Layer_1-2" data-name="Layer 1">
    <path d="M33.42,88.92h-4.78c-.49,0-.95-.24-1.23-.64-.28-.4-.35-.91-.19-1.37l12.22-34.26H14.33l-10.06,8.85c-.27.24-.63.37-.99.37h-1.77c-.49,0-.95-.24-1.23-.64-.28-.4-.35-.91-.19-1.37l4.49-12.58v-5.69L.09,29.04c-.16-.46-.09-.97.19-1.37.28-.4.74-.64,1.23-.64h1.77c.36,0,.72.13.99.37l10.16,8.93c6.27-.01,15.39-.03,24.94-.04L27.22,2c-.16-.46-.09-.97.19-1.37.28-.4.74-.63,1.22-.63h4.78c.45,0,.87.2,1.15.54l29.67,35.73,18.81-.02c4.49,0,8.71,1.75,11.89,4.93l.08.08c1.74,1.75,1.74,4.59.02,6.36-.04.04-.08.09-.1.11-3.18,3.17-7.4,4.92-11.89,4.92h-18.58l-29.91,35.72c-.29.34-.71.54-1.15.54ZM30.76,85.92h1.95l29.91-35.72c.29-.34.71-.54,1.15-.54h19.28c3.61,0,7.16-1.46,9.73-4,.03-.04.08-.09.09-.11.61-.61.62-1.57.02-2.17h0s-.08-.08-.08-.08c-2.6-2.6-6.07-4.04-9.76-4.04l-19.52.02h0c-.45,0-.87-.2-1.15-.54L32.71,3h-1.96l12.13,34.3c.16.46.09.97-.19,1.37-.28.4-.74.63-1.22.63-10.61.01-20.9.03-27.62.04h0c-.36,0-.72-.13-.99-.37l-8.81-7.75,3.44,9.64c.06.16.09.33.09.5v6.21c0,.17-.03.34-.09.5l-3.44,9.64,8.72-7.67c.27-.24.63-.37.99-.37h27.8c.49,0,.95.24,1.23.64.28.4.35.91.19,1.37l-12.22,34.26ZM93.88,46.68h0,0Z"/>
  </g>
</svg>