<?xml version="1.0" encoding="UTF-8"?>
<svg id="Layer_2" data-name="Layer 2" xmlns="http://www.w3.org/2000/svg" viewBox="0 0 102.32 94.92">
  <g id="Layer_1-2" data-name="Layer 1">
    <path d="M100.16,42.15l-.35-.35h-.02c-3.71-3.58-8.57-5.54-13.74-5.54l-17.4.02L39.88,1.63c-.86-1.03-2.12-1.63-3.46-1.63h-4.78c-1.46,0-2.83.71-3.68,1.9-.84,1.19-1.05,2.72-.57,4.1l10.72,30.31c-7.42,0-14.34.02-19.57.03l-9.3-8.18c-.82-.72-1.88-1.12-2.97-1.12h-1.77c-1.46,0-2.84.71-3.68,1.91-.84,1.2-1.05,2.73-.56,4.11l4.31,12.09v4.65L.26,61.88c-.49,1.38-.28,2.91.56,4.1.84,1.2,2.22,1.91,3.68,1.91h1.77c1.1,0,2.15-.4,2.97-1.12l9.21-8.11h19.72l-10.79,30.25c-.49,1.38-.28,2.91.56,4.1.84,1.2,2.22,1.91,3.68,1.91h4.78c1.34,0,2.59-.59,3.45-1.61l29.01-34.65h17.18c5.21,0,10.31-2.11,13.95-5.74.04-.04.14-.14.23-.25,2.81-2.93,2.78-7.64-.08-10.52Z"/>
  </g>
</svg>